<svg width="28.000000" height="28.000000" viewBox="0 0 28 28" fill="none" xmlns="http://www.w3.org/2000/svg" xmlns:xlink="http://www.w3.org/1999/xlink">
	<desc>
			Created with Pixso.
	</desc>
	<defs>
		<filter id="filter_7_122_dd" x="0.000000" y="0.000000" width="28.000000" height="28.000000" filterUnits="userSpaceOnUse" color-interpolation-filters="sRGB">
			<feFlood flood-opacity="0" result="BackgroundImageFix"/>
			<feColorMatrix in="SourceAlpha" type="matrix" values="0 0 0 0 0 0 0 0 0 0 0 0 0 0 0 0 0 0 127 0" result="hardAlpha"/>
			<feOffset dx="0" dy="4"/>
			<feGaussianBlur stdDeviation="1.33333"/>
			<feComposite in2="hardAlpha" operator="out" k2="-1" k3="1"/>
			<feColorMatrix type="matrix" values="0 0 0 0 0 0 0 0 0 0 0 0 0 0 0 0 0 0 0.25 0"/>
			<feBlend mode="normal" in2="BackgroundImageFix" result="effect_dropShadow_1"/>
			<feBlend mode="normal" in="SourceGraphic" in2="effect_dropShadow_1" result="shape"/>
		</filter>
	</defs>
	<g filter="url(#filter_7_122_dd)">
		<path id="Vector" d="M14 20C8.47 20 4 15.52 4 10C4 4.47 8.47 0 14 0C19.52 0 24 4.47 24 10C24 15.52 19.52 20 14 20ZM14.28 6.75C12.28 6.75 10.75 8.25 10.75 10C10.75 11.74 12.28 13.25 14.28 13.25C14.79 13.25 15.28 13.14 15.71 12.97C15.8 12.93 15.9 12.91 16 12.91C16.1 12.91 16.19 12.93 16.29 12.97C16.38 13.01 16.46 13.06 16.53 13.13C16.6 13.2 16.65 13.29 16.69 13.38C16.73 13.47 16.75 13.57 16.74 13.67C16.74 13.76 16.72 13.86 16.69 13.95C16.65 14.04 16.59 14.13 16.52 14.2C16.45 14.27 16.37 14.32 16.28 14.36C15.64 14.61 14.97 14.75 14.28 14.75C11.55 14.75 9.25 12.67 9.25 10C9.25 7.32 11.55 5.25 14.28 5.25C14.97 5.24 15.64 5.38 16.28 5.63C16.46 5.71 16.61 5.85 16.69 6.04C16.76 6.22 16.77 6.43 16.69 6.61C16.61 6.8 16.47 6.94 16.29 7.02C16.1 7.1 15.9 7.1 15.71 7.02C15.26 6.84 14.77 6.74 14.28 6.75Z" fill="#F8FCFF" fill-opacity="1.000000" fill-rule="evenodd"/>
	</g>
</svg>
